<svg width="17" height="15" viewBox="0 0 17 15" fill="none" xmlns="http://www.w3.org/2000/svg">
<path d="M2.76367 1.38103C3.07792 1.2956 3.40858 1.25 3.74988 1.25H12.4999C12.8412 1.25 13.1718 1.2956 13.4861 1.38103C13.0755 0.562114 12.2283 0 11.2499 0H4.99988C4.02142 0 3.17425 0.562114 2.76367 1.38103Z" fill="#999999"/>
<path d="M0 7.5C0 6.11929 1.11929 5 2.5 5H13.75C15.1307 5 16.25 6.11929 16.25 7.5V12.5C16.25 13.8807 15.1307 15 13.75 15H2.5C1.11929 15 0 13.8807 0 12.5V7.5Z" fill="#999999"/>
<path d="M2.49988 3.75C2.15858 3.75 1.82792 3.7956 1.51367 3.88103C1.92425 3.06211 2.77142 2.5 3.74988 2.5H12.4999C13.4783 2.5 14.3255 3.06211 14.7361 3.88103C14.4218 3.7956 14.0912 3.75 13.7499 3.75H2.49988Z" fill="#999999"/>
</svg>
